# xmcd CD database file
#
# Track frame offsets:
#	150
#	19120
#	37645
#	55965
#	69110
#	82250
#	103922
#	123302
#	143395
#	160047
#	176402
#	196032
#	217540
#	239412
#	253702
#	266952
#	280265
#	293515
#	308517
#
# Disc length: 4336 seconds
#
# Revision: 1
# Processed by: cddbd v1.5.1PL0 Copyright (c) Steve Scherf et al.
# Submitted via: CDex 1.50
#
DISCID=f910ee13
DTITLE=Sidney Bichet - Dear Old Southland
DYEAR=1900
DGENRE=Jazz
TTITLE0=Summertime
TTITLE1=Lonesome Blues
TTITLE2=Dear Old Southland
TTITLE3=Bechet's Steady Rider
TTITLE4=Saturday Night Blues
TTITLE5=St. Louis Blues
TTITLE6=Jazz Me Blues
TTITLE7=Blue Horizon
TTITLE8=Muskrat Ramble
TTITLE9=High Society
TTITLE10=Weary Blues
TTITLE11=Jackass Blues
TTITLE12=Days Beyond Recall
TTITLE13=Save It, Pretty Mama
TTITLE14=Memphis Blues
TTITLE15=Shine
TTITLE16=Quicy Street Stomp
TTITLE17=Weary Way Blues
TTITLE18=Careless Love
EXTD=
EXTT0=
EXTT1=
EXTT2=
EXTT3=
EXTT4=
EXTT5=
EXTT6=
EXTT7=
EXTT8=
EXTT9=
EXTT10=
EXTT11=
EXTT12=
EXTT13=
EXTT14=
EXTT15=
EXTT16=
EXTT17=
EXTT18=
PLAYORDER=
